<svg width="320" height="420" xmlns="http://www.w3.org/2000/svg">

 <g>
  <title>background</title>
  <rect fill="none" id="canvas_background" height="422" width="322" y="-1" x="-1"/>
 </g>
 <g>
  <title>Layer 1</title>
  <path stroke="null" id="svg_2" fill="#FFA000" d="m201.814275,178.110194l-36.334,33.809l-33.716,-68.005l17.446,-39.108c4.416,-7.84 11.621,-7.855 16.037,0l36.567,73.304z"/>
  <polygon stroke="null" id="svg_3" points="163.64907264709473,202.76226806640625 27.871084213256836,329.0732421875 129.93306922912598,134.75726318359375 " fill="#F57F17"/>
  <path stroke="null" id="svg_4" fill="#FFCA28" d="m239.723087,116.361667c6.491,-6.239 13.202,-4.111 14.912,4.729l35.342,205.375l-117.157,70.215c-4.1,2.264 -14.957,3.246 -14.957,3.246s-9.91,-1.185 -13.687,-3.281l-116.309,-68.495l211.856,-211.789z"/>
  <path stroke="null" id="svg_5" fill="#FFA000" d="m129.933089,136.588444l-102.062,194.316l45.46,-283.998c1.674,-8.847 6.71,-9.699 11.203,-1.89l45.399,91.572z"/>
 </g>
</svg>