<svg width="425.99999999999994" height="425.99999999999994" xmlns="http://www.w3.org/2000/svg">

 <g>
  <title>background</title>
  <rect fill="none" id="canvas_background" height="402" width="582" y="-1" x="-1"/>
 </g>
 <g>
  <title>Layer 1</title>
  <path fill="#0097dd" id="svg_1" d="m412.5,214.3c-9.2,58.5 -27.1,75.6 -58.8,114.9c-31.7,33.3 -77.3,88.9 -141.9,85.8c-58.5,-9.2 -75.6,-27.1 -114.9,-58.8c-33.3,-31.7 -88.9,-77.3 -85.8,-141.9c9.2,-58.5 27.1,-75.6 58.8,-114.9c31.7,-33.3 77.3,-88.9 141.9,-85.8c58.5,9.2 75.6,27.1 114.9,58.8c33.3,31.7 88.9,77.3 85.8,141.9z" class="st0"/>
  <path fill="#ffffff" id="svg_3" d="m130.3,211.2c-7.2,-2.1 -12.1,-0.3 -14.2,4.6l-14.4,32.4l-14.1,-32.4c-2.1,-4.9 -7,-6.7 -14.2,-4.6c-3.1,1 -4.6,2.6 -4.6,6.4l0,37.6l9.5,0l0,-37.6l14.9,32.7c1.6,3.9 4.1,5.4 8.8,5.4s6.9,-1.5 8.7,-5.4l14.7,-32.7l0,37.6l9.5,0l0,-37.6c0,-3.6 -1.5,-5.4 -4.6,-6.4z" class="st1"/>
  <path fill="#ffffff" id="svg_4" d="m178.7,249.1c-0.2,0 -18,0 -20.8,0c-5.3,-0.1 -5.6,-2.8 -5.6,-3.9l0,-20.6l-9.5,0c0.3,0.1 0,20.7 0.1,21.2c0,4.7 6,9 15.5,9l20.3,0l0,2.5c0,0.9 0.7,4 -5.4,4.7l-30.1,0l0,6.4l29.9,0c4.8,0 15.1,-1.8 15.1,-10.1c0,-0.2 0,-33.9 0,-33.9l-9.5,0l0,24.7z" class="st1"/>
  <path fill="#ffffff" id="svg_5" d="m355.2,221.9c-0.7,-0.7 -1.5,-1.3 -2.1,-2.1c-2.1,-2.8 -4.7,-5.4 -7.5,-7.4c-2.3,-1.6 -7.5,-3.8 -8.3,-6.5c0,0 0,0 -0.2,-0.2c1.6,-0.2 3.4,-0.7 5.1,-1.1c2.5,-0.7 4.7,-0.5 7.4,-1.1c1.1,-0.3 2.3,-0.7 3.4,-1c0,-0.2 0,-0.5 0,-0.7c-1.3,-1.3 -2.3,-3.1 -3.6,-4.3c-3.8,-3.3 -7.9,-6.4 -12.1,-9c-2.3,-1.5 -5.2,-2.5 -7.5,-3.6c-0.8,-0.5 -2.3,-0.7 -2.8,-1.3c-1.3,-1.6 -2.1,-3.8 -2.9,-5.6c-2.1,-4.1 -4.1,-8.5 -6.1,-12.8c-1.3,-2.8 -2.1,-5.7 -3.8,-8.3c-7.5,-12.4 -15.7,-20 -28.3,-27.3c-2.8,-1.5 -5.9,-2.1 -9.3,-2.9c-1.8,0 -3.6,-0.2 -5.4,-0.3c-1.1,-0.5 -2.3,-2 -3.4,-2.6c-4.1,-2.6 -14.9,-8.3 -18,-0.8c-2,4.7 2.9,9.5 4.6,11.8c1.3,1.6 2.8,3.6 3.8,5.4c0.5,1.3 0.7,2.6 1.1,3.9c1.1,3.3 2.3,6.7 3.8,9.8c0.8,1.5 1.6,3.1 2.8,4.6c0.7,0.8 1.6,1.1 1.8,2.5c-1,1.5 -1.1,3.6 -1.6,5.4c-2.6,8.2 -1.6,18.5 2.1,24.5c1.1,1.8 3.9,5.9 7.7,4.3c3.3,-1.3 2.6,-5.4 3.4,-9.2c0.2,-0.8 0,-1.5 0.5,-2l0,0.2c1,2 2,4.1 2.9,6.1c2.3,3.6 6.2,7.4 9.5,9.8c1.8,1.3 3.1,3.6 5.4,4.4l0,-0.2c0,0 0,0 -0.2,0c-0.5,-0.7 -1.1,-1 -1.6,-1.5c-1.3,-1.3 -2.8,-2.9 -3.8,-4.4c-3.1,-4.1 -5.7,-8.7 -8.2,-13.3c-1.1,-2.3 -2.1,-4.7 -3.1,-7c-0.5,-0.8 -0.5,-2.1 -1.1,-2.6c-1.1,1.6 -2.8,2.9 -3.4,4.9c-1.3,3.1 -1.5,7 -2,11c-0.3,0 -0.2,0 -0.3,0.2c-2.3,-0.7 -3.1,-2.9 -4.1,-5.1c-2.1,-5.2 -2.6,-13.6 -0.7,-19.5c0.5,-1.5 2.8,-6.4 1.8,-7.9c-0.5,-1.3 -2,-2.1 -2.8,-3.3c-1,-1.3 -2,-3.1 -2.6,-4.7c-1.8,-4.1 -2.6,-8.7 -4.6,-12.8c-0.8,-2 -2.5,-3.9 -3.6,-5.6c-1.3,-2 -2.9,-3.4 -4.1,-5.7c-0.3,-0.8 -0.8,-2.1 -0.3,-2.9c0.2,-0.7 0.5,-0.8 1,-1c1,-0.8 3.6,0.2 4.6,0.7c2.8,1.1 4.9,2.1 7.2,3.6c1,0.7 2.1,2.1 3.4,2.5c0.5,0 1,0 1.5,0c2.3,0.5 4.9,0.2 7.2,0.8c3.9,1.3 7.4,3.1 10.5,5.1c9.5,6.1 17.5,14.7 22.7,25c0.8,1.6 1.3,3.3 2,4.9c1.5,3.6 3.4,7.2 4.9,10.8c1.5,3.4 2.9,6.9 5.2,9.8c1.1,1.5 5.4,2.3 7.5,3.1c1.5,0.7 3.8,1.3 5.1,2c2.5,1.5 4.9,3.3 7.4,4.9c0.9,0.9 4.7,2.7 4.9,4.2c-5.9,-0.2 -10.3,0.5 -14.2,2c-1.1,0.5 -2.8,0.5 -2.9,1.8c0.7,0.7 0.7,1.5 1.1,2.3c0.8,1.5 2.5,3.4 3.8,4.4c1.5,1.1 3.1,2.3 4.7,3.4c2.8,1.8 6.1,2.8 8.8,4.6c1.6,1 3.3,2.3 4.7,3.4c0.8,0.7 1.3,1.5 2.3,2l0,-0.2c-0.5,-0.7 -0.7,-1.6 -1.1,-2.3z" class="st1"/>
  <path fill="#ffffff" id="svg_6" d="m270.6,137.5c0,0 0,0 0,0.2c0,0 0,0 0.2,0c0.7,1.1 1.6,2 2.3,2.9c0.7,1.1 1.1,2.3 1.6,3.4l0.2,-0.2c1,-0.7 1.5,-2 1.5,-3.6c-0.5,-0.5 -0.5,-1 -0.8,-1.5c-0.6,-0.7 -1.6,-1 -2.1,-1.5c-1.3,0 -2.1,0.2 -2.9,0.3z" class="st1"/>
  <path fill="#ffffff" id="svg_7" d="m203.8,212.1c-5.6,1.8 -8.2,4.6 -8.2,9.5l0,5.2c0,4.3 4.7,8 12.9,8.8c0.8,0 1.8,0 2.8,0l9.8,0c0.3,0 0.7,0 1,0c2.9,0.3 4.3,0.8 5.2,2c0.7,0.7 0.7,1.1 0.7,1.8l0,5.6c0,0.7 -0.5,1.5 -1.3,2.3s-2.3,1.3 -4.1,1.3c-0.3,0 -0.7,0 -1,0l-26.2,0l0,6.6l0.1,0l27.5,0c3.3,0 6.2,-0.7 8.8,-1.8c4.1,-2 6.1,-4.4 6.1,-7.9l0,-7c0,-2.8 -2.3,-5.2 -6.7,-7c-2.3,-0.8 -5.2,-1.3 -8.2,-1.3l-11.5,0c-3.9,0 -5.7,-1.1 -6.2,-3.8c0,-0.3 0,-0.7 0,-0.8l0,-4.3c0,-0.2 0,-0.5 0,-0.8c0.5,-2 1.5,-2.5 4.9,-2.8c0.3,0 0.7,0 0.8,0l27.2,0l0,-6.4l-26.7,0c-3.9,0 -5.9,0.2 -7.7,0.8z" class="st1"/>
  <path fill="#ffffff" id="svg_8" d="m306.9,243.9l0,-32.7l-9.5,0l-0.2,32.8c0,6.5 4.9,10.1 14.7,10.8c1,0 1.8,0.2 2.8,0.2l24.9,0l0,-6.4l-25,0c-5.6,0 -7.7,-1.3 -7.7,-4.7z" class="st1"/>
  <path fill="#ffffff" id="svg_9" d="m291.5,244.4l0,-22.6c0,-5.7 -3.9,-9.2 -11.9,-10.3c-1,-0.2 -1.8,-0.2 -2.8,-0.2l-18.2,0c-0.8,0 -1.8,0.2 -2.6,0.2c-8,1 -12.1,4.6 -12.1,10.3l0,22.6c0,5.2 2.9,8.5 9.4,10.2c2,0.5 4,0.7 5.6,0.7l10.1,0l7.7,-0.5l7.5,6.9l11,0l-9.3,-8.5c4,-1.6 5.6,-4.1 5.6,-8.8zm-9.2,-22.1l0,21.6c0,0.3 0,0.7 0,1c-0.4,1.3 -1.2,2.4 -2.5,3.1l-6.9,-6.2l-11,0l7.9,7.2l-8.7,0c-3.8,0 -6.2,-1.5 -6.7,-4.1c0,-0.3 -0.2,-0.7 -0.2,-1l0,-21.6c0,-2.9 2.7,-4.7 7,-4.7l14.4,0c3.8,0 6.2,1.4 6.7,3.9c0,0.1 0,0.5 0,0.8z" class="st1"/>
  <polygon fill="#ffffff" id="svg_10" points="352.2,253.2 350.4,248.8 348.4,248.8 348.4,255.2 349.7,255.2 349.7,250.3 351.5,255.2 352.5,255.2    354.3,250.3 354.5,255.2 355.8,255.2 355.8,248.8 353.8,248.8  " class="st1"/>
  <polygon fill="#ffffff" id="svg_11" points="341.9,249.8 343.9,249.8 343.9,255.2 343.9,255.2 345.2,255.2 345.2,249.8 347,249.8 347,248.7    341.9,248.7  " class="st1"/>
 </g>
</svg>