<svg width="64" height="64" xmlns="http://www.w3.org/2000/svg">

 <title/>
 <g>
  <title>background</title>
  <rect fill="none" id="canvas_background" height="402" width="582" y="-1" x="-1"/>
 </g>
 <g>
  <title>Layer 1</title>
  <path stroke="#000000" stroke-width="2px" stroke-linejoin="round" fill="none" id="svg_2" d="m10.723986,12.266193l36.926977,0a0,0 0 0 1 0,0l0,38.008504a6.594103,7.038612 0 0 1 -6.594103,7.038612l-23.738771,0a6.594103,7.038612 0 0 1 -6.594103,-7.038612l0,-38.008504a0,0 0 0 1 0,0z" class="cls-1"/>
  <path stroke="#000000" stroke-width="2px" stroke-linejoin="round" fill="none" id="svg_3" d="m47.765409,16.380641l6.824028,0a4.549352,4.984256 0 0 1 4.549352,4.984256l0,17.444897a2.274676,2.492128 0 0 1 -2.274676,2.492128l0,0a2.274676,2.492128 0 0 1 -2.274676,-2.492128l0,-14.952769a2.274676,2.492128 0 0 0 -2.274676,-2.492128l-4.549352,0" class="cls-1"/>
  <line stroke="#000000" transform="rotate(0.1831968128681183 29.53248405456448,21.349716186522837) " stroke-width="2px" stroke-linejoin="round" fill="none" id="svg_4" y2="21.349717" y1="21.349717" x2="48.337662" x1="10.727309" class="cls-1"/>
  <polygon stroke="#000000" stroke-width="2px" stroke-linejoin="round" fill="none" id="svg_5" points="41.018646240234375,28.326263576745987 41.018646240234375,38.615230709314346 30.10306167602539,38.615230709314346 30.10306167602539,28.326263576745987 34.469295501708984,23.181780010461807 36.65241241455078,23.181780010461807 41.018646240234375,28.326263576745987 " class="cls-1"/>
  <path stroke="#000000" stroke-width="2px" stroke-linejoin="round" fill="none" id="svg_6" d="m35.331957,24.55516l0,-14.237254a3.286121,3.882887 0 0 1 3.286121,-3.882887l0,0a3.286121,3.882887 0 0 1 3.286121,3.882887l0,1.294296" class="cls-1"/>
 </g>
</svg>